<?xml version="1.0" standalone="no"?>
<!DOCTYPE svg PUBLIC "-//W3C//DTD SVG 20010904//EN"
 "http://www.w3.org/TR/2001/REC-SVG-20010904/DTD/svg10.dtd">
<svg version="1.0" xmlns="http://www.w3.org/2000/svg"
 width="225.000000pt" height="225.000000pt" viewBox="0 0 225.000000 225.000000"
 preserveAspectRatio="xMidYMid meet">
<metadata>
Created by potrace 1.14, written by Peter Selinger 2001-2017
</metadata>
<g transform="translate(0.000000,225.000000) scale(0.100000,-0.100000)"
fill="#000000" stroke="none">
<path d="M290 1236 c0 -18 66 -165 81 -180 18 -19 19 -19 38 -2 11 10 29 46
41 80 31 94 34 95 65 14 15 -40 36 -82 46 -93 19 -19 19 -19 37 0 32 33 98
214 68 184 -3 -2 -20 -43 -39 -89 -18 -47 -39 -85 -46 -85 -7 0 -29 39 -48 88
-19 48 -41 87 -48 87 -7 0 -28 -39 -47 -87 -21 -54 -39 -88 -48 -88 -9 0 -27
34 -48 88 -19 48 -38 87 -43 87 -5 0 -9 -2 -9 -4z"/>
<path d="M782 1228 c-7 -7 -12 -18 -12 -24 0 -7 -12 -15 -27 -17 l-28 -4 28
-2 c24 -1 27 -5 27 -36 0 -28 -4 -35 -19 -35 -11 0 -23 -4 -26 -10 -3 -6 4
-10 17 -10 13 0 29 -9 36 -20 11 -17 22 -20 90 -18 l77 2 -75 5 -75 6 -3 37
-3 37 78 4 78 3 -77 2 -78 2 0 35 0 35 75 0 c43 0 75 4 75 10 0 15 -143 13
-158 -2z"/>
<path d="M1021 1188 c11 -29 26 -68 32 -85 13 -41 39 -65 60 -57 9 3 30 43 48
87 17 45 32 83 34 85 2 2 15 -30 30 -70 15 -40 36 -82 46 -93 19 -19 19 -19
38 0 22 22 85 174 76 183 -7 8 -8 6 -46 -88 -20 -50 -40 -85 -49 -85 -8 0 -27
35 -48 88 -18 48 -39 87 -46 87 -7 0 -28 -39 -47 -87 -21 -52 -41 -88 -49 -88
-8 0 -28 36 -48 88 -18 48 -38 87 -43 87 -5 0 0 -24 12 -52z"/>
<path d="M1460 1145 c0 -57 4 -95 10 -95 6 0 10 38 10 95 0 57 -4 95 -10 95
-6 0 -10 -38 -10 -95z"/>
<path d="M1580 1145 c0 -57 4 -95 10 -95 6 0 10 16 10 35 l0 35 48 0 c45 0 51
-3 81 -41 38 -47 54 -46 21 2 -21 28 -22 32 -7 41 23 13 24 103 1 112 -9 3
-49 6 -90 6 l-74 0 0 -95z m168 39 c4 -43 -15 -56 -85 -52 l-58 3 -3 43 -3 43
73 -3 73 -3 3 -31z"/>
<path d="M1896 1224 c-9 -8 -16 -19 -16 -24 0 -5 -12 -11 -27 -13 l-28 -4 28
-2 c24 -1 27 -5 27 -36 0 -28 -4 -35 -19 -35 -11 0 -23 -4 -26 -10 -3 -6 5
-10 19 -10 15 0 30 -8 36 -20 10 -18 20 -20 93 -18 l82 2 -80 5 -80 6 -3 37
-3 37 83 4 83 3 -82 2 -83 2 0 35 0 35 74 0 c41 0 78 5 81 10 11 18 -141 12
-159 -6z"/>
</g>
</svg>
